<mxfile host="app.diagrams.net" modified="2022-07-29T07:47:38.134Z" agent="5.0 (Macintosh; Intel Mac OS X 10_15_7) AppleWebKit/537.36 (KHTML, like Gecko) Chrome/103.0.0.0 Safari/537.36" etag="r3MN4gS5jCdnnckh_YXW" version="20.2.2" type="github">
  <diagram id="YCdwLswvdJQFoD0jv95T" name="第 1 页">
    <mxGraphModel dx="946" dy="614" grid="1" gridSize="10" guides="1" tooltips="1" connect="1" arrows="1" fold="1" page="1" pageScale="1" pageWidth="827" pageHeight="1169" background="#283618" math="0" shadow="0">
      <root>
        <mxCell id="0" />
        <mxCell id="1" parent="0" />
        <mxCell id="tpmaLUEy7ghNdNddkdBW-1" value="谈一谈&lt;br&gt;BFC" style="rounded=1;whiteSpace=wrap;html=1;sketch=1;hachureGap=4;fontFamily=Architects Daughter;fontSource=https%3A%2F%2Ffonts.googleapis.com%2Fcss%3Ffamily%3DArchitects%2BDaughter;fontSize=20;fillColor=#BC6C25;strokeColor=#DDA15E;fontColor=#FEFAE0;" vertex="1" parent="1">
          <mxGeometry x="30" y="170" width="140" height="60" as="geometry" />
        </mxCell>
        <mxCell id="tpmaLUEy7ghNdNddkdBW-2" value="" style="shape=curlyBracket;whiteSpace=wrap;html=1;rounded=1;sketch=1;hachureGap=4;fontFamily=Architects Daughter;fontSource=https%3A%2F%2Ffonts.googleapis.com%2Fcss%3Ffamily%3DArchitects%2BDaughter;fontSize=20;fillColor=#BC6C25;strokeColor=#DDA15E;fontColor=#FEFAE0;" vertex="1" parent="1">
          <mxGeometry x="170" y="65" width="20" height="315" as="geometry" />
        </mxCell>
        <mxCell id="tpmaLUEy7ghNdNddkdBW-3" value="&lt;font style=&quot;font-size: 18px;&quot;&gt;1. 何为BFC？&lt;/font&gt;" style="rounded=1;whiteSpace=wrap;html=1;sketch=1;hachureGap=4;fontFamily=Architects Daughter;fontSource=https%3A%2F%2Ffonts.googleapis.com%2Fcss%3Ffamily%3DArchitects%2BDaughter;fontSize=20;fillColor=#BC6C25;strokeColor=#DDA15E;fontColor=#FEFAE0;" vertex="1" parent="1">
          <mxGeometry x="220" y="70" width="250" height="50" as="geometry" />
        </mxCell>
        <mxCell id="tpmaLUEy7ghNdNddkdBW-4" value="&lt;font style=&quot;font-size: 18px;&quot;&gt;2. 触发BFC的条件&lt;/font&gt;" style="rounded=1;whiteSpace=wrap;html=1;sketch=1;hachureGap=4;fontFamily=Architects Daughter;fontSource=https%3A%2F%2Ffonts.googleapis.com%2Fcss%3Ffamily%3DArchitects%2BDaughter;fontSize=20;fillColor=#BC6C25;strokeColor=#DDA15E;fontColor=#FEFAE0;" vertex="1" parent="1">
          <mxGeometry x="219" y="150" width="250" height="50" as="geometry" />
        </mxCell>
        <mxCell id="tpmaLUEy7ghNdNddkdBW-5" value="&lt;font style=&quot;font-size: 18px;&quot;&gt;3. 同一个BFC内的布局规则&lt;/font&gt;" style="rounded=1;whiteSpace=wrap;html=1;sketch=1;hachureGap=4;fontFamily=Architects Daughter;fontSource=https%3A%2F%2Ffonts.googleapis.com%2Fcss%3Ffamily%3DArchitects%2BDaughter;fontSize=20;fillColor=#BC6C25;strokeColor=#DDA15E;fontColor=#FEFAE0;" vertex="1" parent="1">
          <mxGeometry x="220" y="230" width="250" height="50" as="geometry" />
        </mxCell>
        <mxCell id="tpmaLUEy7ghNdNddkdBW-6" value="&lt;font style=&quot;font-size: 18px;&quot;&gt;4. BFC的应用&lt;/font&gt;" style="rounded=1;whiteSpace=wrap;html=1;sketch=1;hachureGap=4;fontFamily=Architects Daughter;fontSource=https%3A%2F%2Ffonts.googleapis.com%2Fcss%3Ffamily%3DArchitects%2BDaughter;fontSize=20;fillColor=#BC6C25;strokeColor=#DDA15E;fontColor=#FEFAE0;" vertex="1" parent="1">
          <mxGeometry x="220" y="320" width="250" height="50" as="geometry" />
        </mxCell>
      </root>
    </mxGraphModel>
  </diagram>
</mxfile>
